<svg width="71" height="66" viewBox="0 0 71 66" fill="none" xmlns="http://www.w3.org/2000/svg">
<path d="M0.000348568 36.4657C0.0389671 35.6941 0.370054 34.7481 0.700107 34.0516C0.80307 33.8327 1.01017 34.0011 1.09212 33.8511C1.25108 33.5627 1.20179 33.2476 1.37848 32.9669C1.43794 32.8752 1.77833 33.083 1.83225 32.985C2.12658 32.4411 2.15992 31.867 2.3733 31.3061C3.43274 28.5132 4.27232 25.7331 5.19327 22.8935C5.49782 21.9523 6.13535 20.891 6.25643 19.8716C6.27017 19.7527 5.93162 19.734 5.91113 19.7051C5.6001 19.2535 6.21539 19.5427 6.36217 19.3421C6.94085 18.554 7.24291 17.5766 7.35695 16.6965C7.40503 16.3201 6.66892 16.5047 7.12747 16.2399C7.15865 16.2213 7.47177 16.4088 7.53591 16.3195C7.68114 16.1153 7.73963 15.6774 7.81627 15.5099C7.96501 15.1899 7.97804 15.1313 8.07181 14.8179C8.20342 14.3889 8.52065 13.9202 8.57811 13.4362C8.58951 13.3321 8.20468 13.3626 8.19164 13.1873C8.17875 13.0117 8.33059 12.6006 8.45325 12.4849C8.57617 12.3681 8.83094 12.5078 8.90065 12.5012C9.48716 12.4517 8.90051 11.7526 8.90102 11.6847C8.90986 11.2675 8.9992 10.892 9.12587 10.5355C9.39404 9.77757 9.81564 9.12185 10.2064 8.31869C10.6738 7.45644 11.1534 6.06165 12.9965 5.44276C14.072 5.13174 15.0637 5.45695 15.6681 5.79849C16.2938 6.14906 16.7292 6.54553 17.1689 6.91582C17.2607 6.99525 17.4402 6.58388 17.5567 6.68483C17.9289 7.01102 18.2467 7.34585 18.5335 7.69078C19.1722 8.46417 19.6557 9.27236 20.0145 10.1398C20.0649 10.264 19.6626 10.3373 19.6942 10.4735C19.9013 11.3091 19.9423 12.7316 21.5639 12.2643C21.797 12.7524 22.0805 13.3376 22.047 13.9134C22.0253 14.2839 21.5245 14.2402 21.8663 14.4713C21.9428 14.5235 22.1908 14.2461 22.2827 14.3387C22.6701 14.7301 22.8676 15.2904 23.2925 15.6524C23.3797 15.7257 23.6399 15.5396 23.7048 15.5369C24.2354 15.5234 23.7861 16.2791 23.7835 16.3862C23.7763 17.2045 24.173 17.5678 24.488 18.1415C24.5608 18.2747 24.8441 17.9071 24.9276 18.0277C25.3559 18.6569 25.7077 19.3559 25.9054 20.0941C25.9486 20.259 25.5566 20.3058 25.5609 20.3937C25.5814 20.7744 26.2217 20.5083 26.2533 20.8673C26.2614 20.9437 25.97 21.0624 25.9465 21.0904C25.5766 21.5298 26.3235 21.302 26.3644 21.3402C26.4486 21.4137 26.5056 21.4933 26.5436 21.5771C26.7468 22.0212 26.4585 22.618 26.7974 22.9998C26.8457 23.0521 27.1016 22.7123 27.2183 22.874C27.4075 23.1325 27.5949 23.397 27.7346 23.574C27.7954 23.6554 27.869 23.7239 27.8048 23.6778C27.7674 23.6577 27.6958 23.5914 27.4493 23.5263C27.2227 23.4552 26.771 23.4997 26.5414 23.6445C26.0974 23.9373 26.2124 23.998 26.2302 23.9576C26.2718 23.9219 26.3407 23.8179 26.4082 23.7008C26.5456 23.4623 26.6909 23.1681 26.8407 22.874C26.9337 22.6868 27.1904 22.8942 27.2288 22.8905C27.836 22.7979 27.1137 22.5103 27.1001 22.4356C27.0045 21.8802 27.7287 21.4785 26.8927 20.9647C27.0343 20.5197 27.1372 20.0777 27.2257 19.6095C27.5707 17.7798 27.642 15.883 28.5889 14.1257C28.603 14.0978 28.9667 14.2106 28.9932 14.1548C29.3172 13.4815 28.7169 13.5232 28.0889 12.9339C27.9314 12.7848 28.8464 12.5683 28.9143 12.5485C29.1645 12.4727 29.6965 12.6882 29.7478 12.6572C30.1533 12.4 28.3165 12.1327 28.3939 11.6957C28.3994 11.6826 28.7252 11.8 28.7652 11.7695C28.8904 11.6751 28.7772 11.5387 28.913 11.4489C29.2272 11.2435 30.1291 11.3213 29.6865 10.8395C29.6291 10.7779 28.5805 10.656 28.7049 10.2755C28.7544 10.1256 28.8755 9.43189 28.9831 9.25459C29.09 9.07708 29.3942 9.27842 29.4114 9.26766C29.9593 8.84576 30.0999 9.07922 30.8036 8.96703C31.5048 8.85848 29.9498 8.58636 29.8013 8.44331C29.653 8.30089 30.1014 8.00257 30.2481 7.94236C30.3949 7.88058 30.5777 8.0439 30.6677 7.97985C31.2575 7.56031 29.9633 7.56046 29.7639 7.32104C29.2953 6.7465 30.5146 6.70673 30.7298 6.35785C30.7882 6.26326 30.5081 6.27591 30.5098 6.17726C30.5213 5.78629 30.9366 5.66553 30.7466 5.15463C30.7153 5.07133 30.1603 4.50254 30.7243 4.45367C30.8054 4.44701 31.0496 4.63169 31.1666 4.49502C31.342 4.28889 31.5511 3.91385 31.5655 3.62575C31.574 3.41761 31.0436 3.43993 31.2785 3.26795C31.3829 3.19399 31.5616 3.48861 31.735 3.34454C31.9119 3.18732 32.1202 2.72611 32.2154 2.537C32.303 2.35695 31.9325 2.27499 31.9186 2.24916C31.8377 2.09896 31.9141 1.63571 31.9388 1.60428C32.3119 1.01812 32.8523 0.434439 33.7142 0.129555C34.6004 -0.202796 35.5976 0.160269 36.131 0.587478C36.5541 0.90003 36.9125 1.26149 37.2695 1.57594C37.3707 1.66716 37.5998 1.34623 37.6182 1.35753C38.0596 1.62616 37.0351 1.99638 36.9697 2.45537C37.5506 1.93455 37.5507 2.15444 37.8108 2.36079C37.9372 2.46148 38.1304 2.2151 38.1637 2.20807C38.6821 2.14025 38.2838 2.60728 38.2062 2.70781C37.9209 3.07889 38.4472 2.91883 38.2558 3.17021C38.0638 3.41703 37.5713 3.4636 37.7379 3.71005C38.0192 3.63149 38.5083 3.04336 38.735 3.17791C39.5942 3.67498 39.8586 5.35961 40.1082 5.99657C40.3517 6.60972 40.5068 6.81571 40.5779 7.1962C40.7144 7.90816 41.0931 7.44469 41.508 7.74893C41.9181 8.04727 40.6169 8.40522 40.3831 8.58186C40.148 8.75565 40.4434 8.69343 40.3315 8.82751C40.2195 8.96109 39.975 8.8933 39.9943 9.07871C40.0131 9.26208 40.6795 9.50664 40.9802 9.44748C41.6154 9.31659 42.1346 8.84323 42.1111 9.3718C42.1093 9.40234 41.7531 9.46154 41.7625 9.57134C41.8522 10.45 42.1694 11.2465 42.2684 12.1168C42.2802 12.2336 41.8817 12.2881 41.8844 12.3576C41.912 13.0851 42.4278 12.6112 43.2477 12.6936C42.314 12.9742 41.8462 13.4004 42.0319 13.8832C42.1429 14.1733 42.5175 13.9678 42.8701 14.0475C42.9764 14.0713 42.7872 14.3862 42.9878 14.3515C43.6439 14.2399 44.2456 13.7736 44.1756 14.3947C44.1715 14.4223 43.8109 14.4794 43.8212 14.5655C43.8798 15.1083 44.5379 14.9198 44.8224 15.4332C45.0495 15.8463 44.9365 16.7258 45.055 17.2394C44.0283 17.6096 44.433 17.9817 45.2051 17.9009C45.2905 18.2213 45.4543 18.5446 45.4677 18.8855C45.4727 19.0026 45.1506 19.0418 45.1233 19.0667C44.6937 19.4523 45.4325 19.342 45.4831 19.3974C46.0065 20.0229 45.7052 20.8279 46.4607 21.3357C46.4878 21.3539 47.2167 21.1408 46.761 21.5126C46.7293 21.5374 46.3224 21.4214 46.4136 21.7594C46.5045 22.0966 46.3428 22.8627 46.8316 23.1977C46.9498 23.2799 47.6288 23.3582 47.2529 23.7422C47.2017 23.7937 46.9848 23.832 46.8855 23.9151C46.5699 24.1818 47.3207 24.0081 46.7628 24.3868C46.206 24.7687 45.8602 25.261 46.4433 25.5767C46.4606 25.5871 47.0727 25.4994 47.1134 25.6482C47.1779 25.8855 47.1718 26.2595 47.2582 26.5013C47.2993 26.6157 47.6314 26.4207 47.6447 26.4384C48.1073 27.143 47.9813 27.8211 48.1215 28.6982C48.1466 28.8595 48.7819 29.1374 48.4957 29.565C48.1824 30.0329 46.3149 30.2846 46.982 30.8932C47.2488 31.1373 49.6058 30.7817 48.6304 31.7102C49.265 32.672 48.9944 33.8482 49.7466 34.7693C49.7802 34.811 50.4527 34.7591 50.4806 34.8742C50.5209 35.0453 50.2591 35.2314 50.2786 35.3569C50.3533 35.887 50.749 36.259 50.8651 36.7521C50.9098 36.9391 50.5877 36.9724 50.641 37.1957C50.6945 37.4188 51.1385 37.4365 51.0418 37.7944C50.9676 38.0656 50.2261 38.5458 50.226 38.8713C51.0306 38.6259 51.079 38.8335 51.4061 39.1271C51.4693 39.1835 51.7243 39.0198 51.7686 39.0419C51.9552 39.1297 51.7636 39.3275 51.9607 39.4047C52.0082 39.4237 52.2823 39.3377 52.3366 39.3483C52.8086 39.4356 52.3056 39.9852 52.2176 40.0797C51.8845 40.4415 52.2751 40.4366 52.1715 40.666C52.0679 40.8951 51.7827 40.6927 51.7516 40.9316C51.6874 41.426 51.9092 41.9712 52.0347 42.4106C52.0867 42.5861 52.4145 42.3512 52.4304 42.3737C52.6375 42.7052 52.3644 43.1941 53.1562 43.1645C51.3526 44.0113 53.4079 43.3251 53.1948 43.9629C53.1772 44.0131 52.303 44.3464 52.1228 44.2312C51.9427 44.1157 52.146 43.7901 51.8735 43.6374C51.8094 43.601 50.8819 43.5708 50.8187 43.5468C50.3243 43.3578 51.6407 42.8921 51.7085 42.8522C52.4374 42.4139 51.425 42.3405 51.3329 42.2658C50.9105 41.9216 50.9806 41.4941 50.6624 41.197C50.4559 41.0024 49.5775 41.2568 49.5452 41.0631C49.4379 40.4221 50.5819 39.8122 49.3429 39.5685C49.0784 39.5158 48.1664 39.944 48.7719 39.2587C48.8101 39.2156 49.3886 38.6656 48.8945 38.614C48.8322 38.6073 48.5552 38.6971 48.5216 38.6727C48.3024 38.5076 48.4776 38.2944 48.2972 38.0965C48.1168 37.8987 47.8696 37.6714 47.8786 37.3777C47.8836 37.2009 48.3342 36.8308 48.4361 36.7141C48.7311 36.3828 48.0585 36.3421 48.4562 36.0661C48.8555 35.7877 49.6138 35.8335 49.7853 35.3869C49.0614 35.6071 48.313 35.8166 47.5824 36.0303C47.3576 35.2506 47.3432 34.4169 47.0576 33.6525C47.0216 33.5582 46.6672 33.7828 46.6186 33.6851C46.4154 33.2729 46.5675 32.807 46.3085 32.3904C46.1071 32.07 45.5724 31.8247 45.3498 31.4983C46.0995 31.0086 45.6389 30.5548 45.5836 30.1397C45.5638 29.9941 45.7861 29.9299 45.8251 29.8087C45.9669 29.3534 45.299 29.7682 45.1513 29.7062C44.5203 29.4407 46.1495 28.8525 45.936 28.3529C45.9252 28.326 44.9391 28.2907 44.8694 28.2641C44.4169 28.0963 45.1575 28.1134 45.1612 27.9114C45.1674 27.5412 45.3014 27.2502 44.9115 26.9445C44.797 26.8567 44.16 26.7715 44.5062 26.409C44.5515 26.3614 44.8456 26.2784 44.8546 26.2495C44.9928 25.7342 44.0824 26.0351 43.6939 25.9038C43.3068 25.7764 43.8019 25.1835 43.9564 25.0469C44.3542 24.6879 44.2081 25.1292 44.2576 25.1243C44.8458 25.0621 44.658 24.8226 44.6324 24.6003C45.5101 24.2623 45.3564 23.992 44.6023 24.3712C44.5201 24.4131 44.6586 24.5447 44.6324 24.6003C43.6982 24.7211 43.4774 24.4454 44.1701 23.8153C44.4941 23.5184 44.9951 23.5236 44.6559 23.0771C44.5027 22.8757 43.9229 23.178 43.6863 23.0372C43.1456 22.7137 43.5116 21.9395 43.2513 21.4946C43.1578 21.336 42.8836 21.6211 42.8083 21.5171C42.6076 21.2419 42.7607 20.8825 42.5226 20.6245C42.5006 20.6014 42.1762 20.7947 42.1376 20.702C41.833 19.9876 41.8294 19.287 41.5539 18.5271C41.4193 18.156 40.9898 17.5941 40.8837 17.1996C40.6989 16.5177 40.8989 15.5398 40.5564 15.0279C40.3372 14.7001 40.0233 14.9159 39.7283 14.8573C39.1611 14.7552 39.7587 13.8894 39.8573 13.7714C39.8605 13.7671 40.0663 14.0437 40.1764 13.8074C40.5055 13.5628 39.8603 13.7741 39.8573 13.7714C39.9194 13.6897 39.7517 13.055 39.6349 12.9588C39.5714 12.9063 39.2619 13.0779 39.235 13.0481C38.6053 12.3463 38.1811 11.5768 37.9786 10.7142C37.9787 10.6968 38.3478 10.5595 38.3434 10.5204C38.2895 9.96858 37.7218 9.88228 37.2866 9.62155C36.8488 9.35594 36.7988 9.02987 37.3024 8.52107C37.086 8.26751 37.1543 7.73486 37.2021 7.43055C37.2464 7.11896 36.5469 7.43359 36.5239 7.42179C35.7756 7.03463 35.9736 6.48163 35.6851 5.8578C35.5457 5.55249 35.1128 5.07932 34.8708 4.88616C34.6728 4.72251 34.7258 4.49522 34.5167 4.41715C34.4882 4.40617 34.2398 4.64087 34.2245 4.64285C33.7761 4.73853 34.4811 4.28569 34.5651 4.15392C34.876 3.68601 34.9966 3.38439 34.6484 3.40575C34.5594 3.40144 33.7057 4.25566 33.7178 4.35339C33.7114 4.38646 33.7409 4.36824 33.7745 4.33059C33.8423 4.26134 33.9168 4.12105 33.9442 4.2123C33.9509 4.22457 33.8194 4.45845 33.9237 4.49143C34.1635 4.58144 34.7975 4.64661 35.2938 4.45424C35.7846 4.2716 35.9373 4.04538 35.9704 4.03776C35.9804 4.03131 36.2675 4.33953 36.2928 4.32868C36.3828 4.2869 36.1367 4.60016 35.7883 4.90142C35.6982 4.97773 35.4585 4.79439 35.369 4.77964C34.8185 4.71009 35.4396 5.21888 35.4401 5.25737C35.4536 6.21386 34.5585 6.76414 34.5991 7.90051C34.6022 7.96309 35.2906 8.59703 34.5557 8.63089C34.5068 8.63256 33.7557 8.661 34.1954 8.9523C34.2231 8.97019 34.6144 8.93132 34.527 9.13889C34.439 9.35013 34.6043 9.74833 34.1391 9.96673C33.9925 10.0357 33.2375 10.1164 33.7411 10.5234C33.7759 10.5522 34.9608 11.2531 34.0501 11.238C33.9002 11.2355 32.9732 11.0259 33.3836 11.4697C33.4635 11.5544 33.6946 11.4727 33.7909 11.6737C33.94 11.9807 33.6236 12.2929 33.9801 12.7017C34.0432 12.7736 34.6338 13.1321 34.1175 13.2462C34.0366 13.2642 33.7347 13.1505 33.6815 13.2497C33.4265 13.7233 33.5475 14.2855 33.2473 14.7668C33.1417 14.9368 32.651 14.7619 32.4848 14.9305C32.3184 15.1006 32.1263 15.4692 32.3266 15.7045C32.5268 15.9404 33.3678 15.8472 33.3853 16.1597C33.4618 17.5147 32.7992 18.739 32.5183 20.0932C32.4767 20.2918 32.7912 20.1725 32.7508 20.4651C32.75 20.4709 32.7492 20.4767 32.7484 20.4826C32.5976 21.5957 32.5422 23.5641 31.6156 24.6142C30.8584 25.4553 30.8468 24.137 30.4393 24.8024C30.2526 25.0974 30.9313 25.9518 30.8696 26.1399C30.759 26.5225 30.61 26.9454 30.0081 27.5798C29.7217 27.8701 29.2351 28.2723 28.5245 28.5299C27.8151 28.8013 26.9097 28.8203 26.2943 28.6621C25.0183 28.314 24.6568 27.8318 24.3225 27.5437C24.0057 27.2292 23.8256 27.0044 23.6332 26.8156C23.4748 26.6555 23.3023 27.0621 23.1736 26.9238C22.7497 26.4664 22.6603 25.9858 22.4256 25.6609C22.3245 25.5217 22.0883 25.6993 22.0258 25.5492C21.8808 25.2029 21.8305 24.8654 21.9069 24.4425C21.9138 24.4038 22.3327 24.401 22.2197 24.1745C22.201 24.1372 22.1839 24.0975 22.1678 24.056C22.0322 23.7008 21.9813 23.2157 21.5589 22.9795C21.4177 22.9009 20.8318 23.2293 21.0912 22.7445C21.1452 22.6431 21.8862 22.3151 21.1127 22.3619C20.9832 22.3679 19.8839 22.3319 20.2753 21.7931C20.3784 21.6514 20.8585 21.1597 20.6893 21.0714C20.6641 21.0605 20.3935 21.3148 20.2968 21.2155C19.9599 20.8597 19.7494 20.4122 19.4101 20.0476C19.3192 19.9511 19.0909 20.3034 18.9657 20.1538C18.6208 19.7422 18.3737 19.1258 18.2153 18.6245C18.1573 18.439 18.4903 18.3954 18.5124 18.3666C18.8721 17.8978 18.1685 18.1595 18.0943 18.1185C17.6404 17.8573 17.7614 17.3824 17.4671 17.072C17.3865 16.9857 17.1272 17.2379 17.0884 17.2344C16.7031 17.1902 17.3359 17.0141 17.3177 16.8493C17.2686 16.3872 16.9981 16.0009 16.737 15.6683C16.6401 15.5456 16.3863 15.9101 16.3037 15.7981C15.8091 15.1419 15.3893 14.4229 15.1412 13.6645C15.0954 13.5217 15.4055 13.4175 15.4476 13.352C15.7432 12.8947 15.0044 13.0375 14.9138 13.0235C14.49 12.944 14.6464 12.6872 14.4466 12.5073C14.1872 12.2763 13.9442 12.0287 13.7284 11.8009C13.4429 11.4973 13.1844 11.2285 13.1086 11.1326C13.0748 11.0839 13.0948 11.0863 13.2444 11.1251C13.3882 11.1612 13.6983 11.231 14.0866 11.1959C14.8195 11.1445 15.3466 10.6903 15.3937 10.5627C15.4746 10.4118 15.3489 10.4598 15.2319 10.5924C14.9778 10.8721 14.6928 11.4361 14.5244 12.1398C14.5236 12.1428 14.5234 12.1456 14.5235 12.1484C14.5245 12.2474 14.9298 12.2616 14.9118 12.3532C14.6557 13.5638 14.1566 14.6851 13.9311 15.9056C13.9118 16.0059 14.3336 15.9748 14.3155 16.1392C14.2811 16.4774 14.1453 16.8739 13.9305 17.1663C13.8267 17.3082 13.5597 17.0025 13.4619 17.1472C13.2338 17.4835 13.0943 17.8738 13.0481 18.2739C13.0294 18.4439 13.4887 18.3086 13.4342 18.5206C13.0702 19.9695 12.751 21.3997 11.8538 22.7217C11.7925 22.8115 10.9723 22.6864 11.068 22.9419C11.2848 23.0168 11.5452 23.0852 11.7798 23.1551C11.349 25.2875 10.536 27.3053 9.97289 29.4081C9.94902 29.4977 10.4115 29.4467 10.3676 29.6204C10.1163 30.6163 10.0008 31.6127 9.33768 32.5363C9.27305 32.6259 8.53614 32.4011 8.57889 32.7289C8.58652 32.7891 8.58339 33.2553 8.7179 33.4148C8.73875 33.4364 9.10743 33.4344 9.08386 33.583C8.94253 34.438 8.66392 35.3017 8.26589 36.0966C8.20055 36.2268 7.8593 35.9985 7.80955 36.0905C7.46163 36.7337 7.58753 37.5398 7.11395 38.1257C6.79503 38.5219 6.18095 38.2278 5.49704 38.3316C5.40081 38.3446 5.33074 38.6236 4.95729 38.5628C4.01672 38.4165 3.02148 38.0801 2.01583 37.9398C1.79872 37.9114 1.95717 38.3276 1.48209 38.0069C1.45012 37.9859 1.33249 37.6764 1.17124 37.57C1.05959 37.4969 0.664697 37.5103 0.529307 37.379C0.39299 37.2533 0.730057 37.2122 0.58053 37.0126C0.429007 36.812 -0.0141697 36.7942 0.000348568 36.4657ZM37.375 6.02364C37.5771 5.62872 36.3844 6.25349 36.7915 6.3249C36.8126 6.32769 37.3653 6.0435 37.375 6.02364ZM48.3093 34.1064C48.7712 33.6082 47.8716 33.6658 47.5079 34.0288C47.1447 34.3916 48.1695 34.2578 48.3093 34.1064ZM49.7724 37.2136C50.1001 36.7044 48.2652 37.233 48.7584 37.5055C48.7865 37.5215 49.7535 37.2433 49.7724 37.2136ZM5.53905 37.2014C5.52112 37.1997 5.46268 37.3953 5.47893 37.4043C5.87559 37.5965 5.99174 37.2073 5.53905 37.2014ZM51.2552 40.2944C51.4651 40.1026 51.0756 39.8627 50.8153 40.1029C50.6062 40.2971 50.9944 40.5335 51.2552 40.2944ZM31.3658 6.52297C31.3454 6.52124 31.2895 6.65654 31.3997 6.6836C31.7545 6.76981 31.7081 6.55061 31.3658 6.52297ZM53.0134 45.7728C52.8262 44.9395 54.1747 43.974 54.2836 44.9109C54.3034 45.0806 53.6954 44.7171 53.624 44.9635C53.4945 45.4139 54.5167 45.3644 54.1307 45.9049C54.0598 46.003 53.0207 45.8213 53.0108 45.772C53.0117 45.7723 53.0125 45.7725 53.0134 45.7728ZM38.7211 5.11663C38.7341 5.10314 38.6491 4.91604 38.6314 4.92086C38.2056 5.03474 38.3738 5.40636 38.7211 5.11663ZM28.8664 14.7207C28.827 14.7263 28.7191 15.1842 28.7515 15.204C29.4039 15.5526 29.6235 14.6311 28.8664 14.7207ZM45.0306 17.2572C45.5117 17.3177 45.6519 17.5505 45.2053 17.8998C45.1574 17.6872 45.0838 17.4762 45.0306 17.2572Z" fill="#1788C5"/>
<path d="M70.6485 6.63025C70.1079 7.3132 69.2058 8.00724 68.4674 8.479C68.2364 8.62721 68.1694 8.36065 68.0023 8.45548C67.6756 8.64113 67.5125 8.96043 67.1771 9.12984C67.0652 9.18513 66.9099 8.81016 66.7985 8.87437C66.1895 9.22876 65.7899 9.74685 65.2345 10.1699C62.4999 12.2517 59.981 14.4796 57.3734 16.7523C56.513 17.5028 55.2782 18.2163 54.5341 19.1417C54.448 19.2495 54.7369 19.4317 54.7371 19.4694C54.7338 20.0538 54.3655 19.4789 54.1108 19.6009C53.1025 20.0849 52.2319 20.882 51.5826 21.6861C51.3093 22.0267 52.0792 22.1993 51.5088 22.2358C51.4694 22.2391 51.305 21.9084 51.1923 21.9649C50.9371 22.0937 50.6112 22.4956 50.4421 22.62C50.1161 22.8574 50.0656 22.9111 49.7883 23.1731C49.4088 23.5275 48.8357 23.8374 48.4907 24.2815C48.4178 24.3771 48.7816 24.5276 48.6882 24.7032C48.5934 24.8801 48.2058 25.2118 48.0253 25.2679C47.8441 25.3245 47.699 25.0702 47.6322 25.0443C47.0761 24.8182 47.1782 25.7768 47.1386 25.8413C46.3739 27.0259 45.2343 27.5255 44.3065 28.4256C43.6009 29.1113 42.9604 29.9312 42.2735 30.5704C41.4599 31.3254 40.6553 31.8345 39.908 32.609C39.8945 32.623 39.8952 32.641 39.9052 32.6618C39.9509 32.7609 40.2047 32.9182 40.1237 33.0025C39.1006 34.069 38.0242 35.0511 36.8235 35.8634C36.6989 35.9489 36.5664 35.5517 36.4261 35.6214C35.6104 36.0028 34.0193 36.666 35.1726 37.8882C35.119 37.9303 35.0763 38.0092 35.1316 37.8221C35.1451 37.77 35.1741 37.6683 35.1893 37.5169C35.2014 37.4051 35.2229 37.0418 35.074 36.6709C34.9426 36.2755 34.5077 35.8453 34.2387 35.7278C33.9815 35.5938 33.759 35.563 33.6684 35.5587C33.2861 35.5628 33.4347 35.6353 33.4885 35.6651C33.58 35.6994 33.6904 35.7368 33.8264 35.7803C34.1631 35.8925 34.0089 36.3733 34.3306 36.0785C34.3965 36.0137 34.1734 35.7163 34.2807 35.6444C34.7475 35.3351 35.4086 35.1803 35.8598 34.7808C35.9573 34.6961 35.7979 34.4181 35.8068 34.3515C35.864 33.8185 36.635 34.312 36.7437 34.3233C37.6456 34.3677 38.114 33.9652 38.7904 33.6537C38.9522 33.5792 38.5774 33.284 38.7268 33.1982C38.7665 33.1758 38.8065 33.1534 38.847 33.1311C39.5557 32.7375 40.3658 32.3903 41.1669 32.199C41.3569 32.1541 41.3598 32.5586 41.459 32.5538C41.895 32.5284 41.681 31.8665 42.0856 31.8335C42.1715 31.8253 42.2682 32.1254 42.2966 32.1497C42.7411 32.5308 42.5878 31.7566 42.6345 31.7148C43.212 31.1744 44.0051 31.6706 44.6048 31.2492C44.6768 31.1977 44.3254 30.9308 44.5387 30.8077C45.962 29.984 47.5692 29.3122 49.1701 28.881C49.4186 28.8136 49.3867 29.1593 49.4171 29.1852C49.9007 29.5847 49.7156 28.8232 49.7772 28.7611C50.272 28.2888 51.0983 28.6012 51.0991 27.5877C53.7214 26.6711 55.9896 25.0245 58.8475 24.6517C58.8831 24.6463 58.9787 25.0163 59.049 25.0041C59.8876 24.8664 59.5235 24.3869 59.7472 23.5101C59.8015 23.2907 60.5406 23.9172 60.5999 23.9612C60.8186 24.1228 60.9033 24.6957 60.9636 24.7195C61.4524 24.9003 60.6711 23.2153 61.1582 23.0152C61.1748 23.0118 61.2389 23.3544 61.2931 23.3689C61.4615 23.4154 61.5364 23.2388 61.7027 23.2988C62.0844 23.4397 62.5028 24.2423 62.7505 23.5858C62.7798 23.5022 62.326 22.5471 62.774 22.4335C62.9713 22.3801 63.7409 22.0908 64.011 22.0797C64.2594 22.0725 64.2043 22.4456 64.2255 22.4542C64.9461 22.7023 64.7994 22.9431 65.2572 23.5048C65.6905 24.0755 65.236 22.5648 65.3362 22.3601C65.4388 22.152 66.0073 22.4256 66.1477 22.5487C66.278 22.6666 66.1524 22.8932 66.2558 22.958C66.6035 23.1758 66.6479 23.0137 66.7316 22.7318C66.8184 22.4602 66.7762 22.0528 67.104 22.0125C67.3723 21.9974 67.7099 22.0756 68.0261 22.4718C68.1678 22.6512 68.2624 22.8974 68.2873 23.0731C68.314 23.2443 68.3023 23.4025 68.2702 23.5378C68.2386 23.671 68.1837 23.7961 68.1271 23.8781C68.0751 23.9433 68.017 23.9989 67.956 24.0476C67.8336 24.1448 67.6998 24.2147 67.5679 24.2782C67.3511 24.3424 67.1492 24.3903 67.0163 24.5125C66.9024 24.6156 67.1882 24.6771 67.1384 24.7851C67.0421 24.9904 66.8558 25.1079 66.6964 25.2335C66.5517 25.3421 66.4201 25.477 66.3529 25.7915C66.3184 25.9081 66.5616 26.6683 65.9914 26.5061C65.9111 26.4808 65.7851 26.1956 65.5985 26.2881C65.3169 26.4286 64.9362 26.7038 64.7629 26.9978C64.6421 27.2086 65.1557 27.3873 64.8555 27.4618C64.7221 27.4943 64.6952 27.137 64.4604 27.2149C64.2333 27.2866 63.7775 27.7148 63.6243 27.8632C63.4687 28.0149 63.7991 28.2085 63.8024 28.2385C63.8175 28.4136 63.6084 28.8317 63.5774 28.858C62.1446 30.1695 60.395 30.8215 59.0716 32.1626C58.9691 32.2659 59.2864 32.5031 59.2732 32.5219C58.9876 32.9615 58.6492 31.9203 58.1622 31.8752C58.6925 32.4489 58.4438 32.469 58.217 32.7621C58.1078 32.9041 58.3712 33.0795 58.3783 33.1135C58.4611 33.6359 57.9645 33.2752 57.8518 33.2104C57.4447 32.9659 57.6341 33.4892 57.3593 33.3277C57.086 33.1679 57.015 32.6629 56.7553 32.8783C56.8556 33.1556 57.5083 33.5673 57.3809 33.8207C56.8869 34.7905 55.1102 35.4667 54.4748 35.8896C53.8305 36.3204 53.6476 36.5286 53.2355 36.7228C52.4862 37.0764 53.0525 37.3208 52.8037 37.8286C52.5509 38.3392 51.93 37.1353 51.6962 36.9546C51.4633 36.7732 51.5814 37.0544 51.4134 36.9858C51.2456 36.9171 51.2806 36.6435 51.0766 36.7272C50.8661 36.8161 50.7399 37.558 50.8624 37.8416C51.1271 38.4386 51.7387 38.8067 51.1574 38.9609C51.1237 38.9695 50.9914 38.6292 50.8731 38.676C49.9294 39.0652 49.1366 39.6547 48.2136 40.0626C48.0865 40.1182 47.945 39.7359 47.8683 39.7647C47.067 40.0654 47.7053 40.4033 47.7977 41.2515C47.2854 40.421 46.7334 40.0958 46.2429 40.4636C45.9472 40.6848 46.2549 40.9832 46.2455 41.3665C46.2429 41.4818 45.8566 41.4104 45.9394 41.598C46.2104 42.2111 46.8451 42.6448 46.1719 42.7927C46.1416 42.7984 45.995 42.4615 45.9063 42.5019C45.3313 42.7622 45.6856 43.3494 45.1995 43.8228C44.8114 44.1993 43.8283 44.4235 43.3087 44.7322C42.6598 43.8545 42.3596 44.3955 42.6289 45.1353C42.2943 45.35 41.9945 45.6299 41.6326 45.773C41.5087 45.8221 41.3856 45.5191 41.3521 45.5016C40.8309 45.224 41.1375 45.9099 41.0879 45.9833C40.5278 46.7557 39.6049 46.7563 39.2412 47.7089C39.2284 47.743 39.6445 48.3786 39.1263 48.0758C39.0913 48.0543 39.1131 47.6063 38.7707 47.8305C38.4272 48.0554 37.5664 48.194 37.3291 48.8115C37.2709 48.9609 37.364 49.6607 36.8526 49.4431C36.7838 49.4132 36.6857 49.2149 36.5703 49.1502C36.2005 48.9457 36.5846 49.6155 36.0308 49.2171C35.4771 48.8185 34.8433 48.6844 34.6607 49.3824C34.6541 49.4037 34.9107 49.9703 34.7618 50.0699C34.5238 50.2283 34.1225 50.3706 33.8847 50.5535C33.771 50.6412 34.0705 50.8881 34.0547 50.9086C33.4018 51.661 32.6649 51.7921 31.7474 52.2951C31.5801 52.3857 31.4468 53.1271 30.9133 53.0179C30.3265 52.9003 29.5494 51.17 29.0751 52.0741C28.8826 52.4378 29.9086 54.603 28.6417 54.0292C27.7862 55.0429 26.4436 55.2658 25.6606 56.3849C25.6252 56.435 25.8682 57.0713 25.7526 57.1462C25.5801 57.2564 25.3073 57.0774 25.1781 57.1483C24.6333 57.4385 24.3353 57.9867 23.8414 58.3029C23.6534 58.4241 23.5271 58.1232 23.3027 58.2679C23.0786 58.4128 23.1848 58.8536 22.7744 58.9075C22.4636 58.9471 21.7357 58.4254 21.3848 58.5622C21.8755 59.2455 21.6635 59.3814 21.4425 59.8222C21.4 59.9073 21.6476 60.0881 21.6366 60.1406C21.5954 60.3591 21.3294 60.2544 21.3027 60.4788C21.2959 60.533 21.4657 60.7647 21.4698 60.822C21.5112 61.3181 20.7784 61.0574 20.6515 61.0115C20.1679 60.8383 20.2835 61.2178 20.0074 61.2132C19.7316 61.2084 19.8687 60.8447 19.6028 60.915C19.0505 61.062 18.536 61.5015 18.0968 61.8111C17.9228 61.9358 18.2686 62.1567 18.249 62.1817C17.9514 62.5236 17.3484 62.4632 17.6061 63.2231C16.1825 61.8201 17.5049 63.5367 16.7618 63.5957C16.7028 63.5997 16.0954 62.8874 16.1673 62.6634C16.2391 62.4395 16.6459 62.5012 16.7324 62.1709C16.7531 62.0931 16.5212 61.1754 16.5291 61.1035C16.5916 60.5412 17.4671 61.6295 17.5291 61.6789C18.2076 62.2055 17.9992 61.1862 18.0533 61.0649C18.3008 60.5094 18.7786 60.3993 19.009 59.9629C19.1602 59.6791 18.6381 58.9282 18.8378 58.8148C19.5011 58.4375 20.4734 59.3041 20.3855 57.992C20.3674 57.7117 19.6494 57.0003 20.5591 57.3033C20.6164 57.3225 21.3724 57.6563 21.2902 57.151C21.2797 57.0874 21.1053 56.8542 21.122 56.8113C21.2373 56.5286 21.5154 56.611 21.677 56.3524C21.8387 56.0939 22.0136 55.7575 22.332 55.6439C22.5238 55.575 23.0504 55.8596 23.2049 55.9103C23.646 56.0591 23.4996 55.3862 23.9076 55.6602C24.3181 55.9353 24.4808 56.6957 25.0081 56.6785C24.5696 56.0618 24.1357 55.4167 23.7024 54.7908C24.4782 54.247 25.3744 53.8851 26.1192 53.2889C26.211 53.2145 25.8713 52.9603 25.9633 52.8722C26.3535 52.5011 26.8956 52.4588 27.2731 52.0335C27.5641 51.7032 27.6843 51.0765 27.9782 50.722C28.7158 51.2518 29.0682 50.6223 29.5042 50.3956C29.6569 50.3157 29.7861 50.5078 29.9281 50.4959C30.4603 50.4467 29.8313 49.9616 29.8594 49.7904C29.9805 49.0587 31.0535 50.4185 31.5309 50.0083C31.5567 49.987 31.329 49.0048 31.3391 48.9254C31.3986 48.413 31.5779 49.148 31.7973 49.0691C32.2008 48.923 32.561 48.9288 32.7823 48.4255C32.8462 48.2777 32.769 47.6168 33.2516 47.8113C33.3149 47.8366 33.4821 48.0926 33.5157 48.0898C34.1082 48.0181 33.5423 47.2442 33.5851 46.8063C33.6299 46.3672 34.3948 46.6207 34.584 46.7172C35.0757 46.9651 34.5606 46.9983 34.5789 47.0451C34.7999 47.5996 35.0091 47.3187 35.2427 47.2043C35.8365 47.9339 36.0883 47.6744 35.4825 47.0827C35.4159 47.0184 35.3096 47.2078 35.2427 47.2043C34.8688 46.3319 35.1113 46.0023 35.9732 46.4327C36.3775 46.6342 36.5057 47.1269 36.8948 46.619C37.0736 46.3873 36.5977 45.9354 36.6902 45.6451C36.9017 44.9824 37.8493 45.0248 38.2519 44.6023C38.398 44.449 38.0223 44.2885 38.1147 44.174C38.3632 43.8663 38.7963 43.8726 39.0212 43.5323C39.0413 43.5011 38.7499 43.2564 38.8426 43.1805C39.5393 42.6006 40.3055 42.3191 41.0686 41.7493C41.438 41.4732 41.9483 40.8293 42.3591 40.5687C43.0638 40.1202 44.1729 39.9533 44.6599 39.4166C44.9749 39.0705 44.6691 38.8373 44.6717 38.5173C44.6753 37.898 45.7341 38.1925 45.8869 38.2465C45.892 38.2483 45.6364 38.5542 45.9169 38.5792C46.254 38.8208 45.8845 38.2505 45.8869 38.2465C45.9818 38.2845 46.6649 37.8668 46.7451 37.7156C46.789 37.6331 46.5371 37.3834 46.564 37.3456C47.2016 36.4592 47.983 35.744 48.9188 35.2268C48.9378 35.221 49.1565 35.5489 49.1981 35.5315C49.7792 35.3023 49.8118 34.6679 50.0344 34.1327C50.2599 33.5954 50.6265 33.4302 51.2776 33.7777C51.5332 33.4699 52.1511 33.3644 52.5091 33.3131C52.8674 33.2616 52.4273 32.6341 52.4395 32.6052C52.8112 31.6958 53.4961 31.7123 54.2208 31.2225C54.5828 30.9775 55.1781 30.3587 55.4728 30.0136C55.7079 29.7377 56.0045 29.7285 56.1913 29.4295C56.217 29.389 55.9667 29.1532 55.9692 29.1343C56.0019 28.5828 56.3875 29.3425 56.5411 29.4094C57.101 29.6513 57.4011 29.7789 57.6211 29.2699C57.6724 29.1526 57.1631 28.0191 57.2714 27.8389C57.414 27.6059 57.6131 27.9991 57.7528 27.7483C57.7649 27.7273 57.5925 27.5257 57.7255 27.4307C58.3729 26.9596 59.094 26.5554 59.7009 25.9997C59.7814 25.9271 59.4024 25.6981 59.5133 25.5887C60.0316 25.0773 60.629 24.5743 61.301 24.2294C61.4612 24.1509 61.5802 24.4409 61.6666 24.4804C62.1942 24.7157 61.898 23.9416 61.9339 23.8878C62.2609 23.3396 62.684 23.021 63.0563 22.7501C63.2671 22.5882 63.4268 22.4789 63.576 22.3319C63.647 22.2622 63.6984 22.2018 63.7219 22.1587C63.7537 22.1055 63.744 22.0798 63.6723 22.1459C63.6442 22.1764 63.6055 22.2256 63.5577 22.305C63.5413 22.3338 63.456 22.3841 63.335 22.5497C63.2325 22.6834 62.9563 23.2306 63.0734 24.1586C63.1224 24.6166 63.4048 25.3627 63.8207 25.8574C64.0257 26.113 64.2597 26.3286 64.4786 26.4893C64.6606 26.6237 64.8379 26.7255 65.0004 26.8011C65.6625 27.0963 66.0289 27.0216 66.1551 26.867C66.1774 26.8468 66.348 26.6695 66.429 26.543C66.5221 26.4172 66.507 26.3575 66.5324 26.6042C66.5337 26.6353 66.5932 27.0027 66.5656 26.9684C66.5145 26.9363 66.3204 27.2314 65.9209 26.9237C65.7907 26.8277 65.3739 26.1989 65.2358 26.852C65.222 26.8981 65.2213 28.2745 64.7353 27.4984C64.6559 27.3705 64.3579 26.4669 64.1609 27.0611C64.1233 27.1763 64.3274 27.3252 64.1873 27.5201C63.9615 27.8244 63.5056 27.7311 63.295 28.2737C63.2533 28.3715 63.2466 29.0706 62.8455 28.7081C62.7826 28.6514 62.7243 28.3322 62.5972 28.347C61.9765 28.4225 61.5048 28.8573 60.8643 28.9001C60.6385 28.9156 60.5315 28.4026 60.2701 28.3683C60.0069 28.3348 59.5358 28.4013 59.4198 28.7108C59.3016 29.0214 59.8731 29.6589 59.5785 29.8643C58.3038 30.7553 56.7178 30.9718 55.2881 31.5772C55.0765 31.6668 55.3745 31.8481 55.0713 31.9995C53.9551 32.5572 52.1303 33.7499 50.8795 33.6721C49.8746 33.6109 50.6971 32.786 50.0073 32.8988C49.6748 32.9544 49.7816 33.9598 49.7254 34.0207C49.1721 34.631 48.5186 34.4842 47.9564 34.9052C47.8414 34.9918 48.136 35.2756 48.0363 35.3454C47.7007 35.5852 47.2305 35.6257 46.8924 35.8275C46.7411 35.9188 46.9001 36.1681 46.7454 36.2191C46.3773 36.3439 46.0043 36.3901 45.5461 36.3087C45.5042 36.3013 45.5503 35.8711 45.288 35.9852C44.8597 36.1727 44.22 36.1846 43.8587 36.6742C43.7508 36.8211 44.0391 37.4279 43.5272 37.1619C43.4207 37.1062 43.1465 36.3425 43.0994 37.1411C43.0885 37.2755 42.8821 38.4218 42.33 38.0158C42.1806 37.911 41.6852 37.4175 41.5564 37.5948C41.5399 37.6211 41.7914 37.9004 41.6621 38.0018C41.5449 38.0918 41.4232 38.1724 41.3002 38.2478C40.9091 38.483 40.5433 38.6573 40.163 38.929C40.0332 39.0241 40.4045 39.2622 40.2064 39.3928C39.6684 39.7496 38.8721 40.011 38.2282 40.1662C37.9848 40.2253 38.0168 39.8734 37.9867 39.8499C37.5073 39.4622 37.6591 40.2007 37.5771 40.2825C37.1282 40.7526 36.5514 40.6147 35.9862 40.9135C35.8124 41.0001 36.0568 41.2879 36.0307 41.3303C35.745 41.7512 35.8281 41.056 35.5704 41.0668C35.1399 41.0878 34.8524 41.1748 33.9298 41.2673C33.7435 41.2808 33.3309 41.3062 32.8605 41.2379C32.3217 41.1211 31.2592 41.0533 30.1256 39.5863C29.1475 38.1615 29.4071 36.8516 29.4775 36.4442C29.6038 35.8579 29.7175 35.6322 29.819 35.3915C30.1079 34.7923 29.424 35.2099 29.6591 34.762C30.3115 33.6443 30.6748 33.3129 31.112 32.8477C31.5314 32.4271 31.9718 32.0644 32.4081 31.7784C32.5788 31.6656 32.7156 31.9757 32.7961 31.9962C33.3463 32.1524 33.1451 31.3822 33.1655 31.2694C33.2425 30.7701 33.5697 30.8373 33.785 30.5509C34.3417 29.815 35.0517 29.0986 35.7828 28.4287C36.4812 27.7891 37.2065 27.186 37.8316 26.6571C39.4787 25.2625 40.9009 24.3022 42.3209 22.8209C42.4115 22.727 42.026 22.5176 42.1004 22.4327C43.0775 21.3476 44.2229 20.4685 45.1901 19.3668C45.2691 19.2778 44.8704 19.1112 44.9881 18.9587C45.2268 18.6444 45.6047 18.3096 45.9786 18.1248C46.16 18.0346 46.2099 18.4595 46.3877 18.3636C46.8012 18.142 47.1791 17.8166 47.4674 17.4502C47.591 17.2922 47.0936 17.2082 47.2762 17.0256C48.5172 15.7727 49.7153 14.5207 51.3627 13.6629C51.4755 13.6044 52.1246 14.1241 52.202 13.8299C52.0574 13.6515 51.8698 13.4583 51.7063 13.2762C53.466 11.3978 55.4884 9.84716 57.3751 8.09228C57.4546 8.01826 57.0167 7.8333 57.1684 7.68892C58.047 6.85209 58.8156 5.94431 60.0113 5.39631C60.1296 5.34134 60.6169 5.93916 60.7985 5.60308C60.8303 5.54306 61.1535 5.08975 61.1396 4.87154C61.136 4.84008 60.8152 4.65078 60.935 4.521C61.6363 3.77047 62.4672 3.08454 63.3563 2.53328C63.5003 2.44476 63.6385 2.84201 63.7434 2.78135C64.4857 2.34847 64.9378 1.51035 65.7531 1.20728C66.2996 1.00559 66.6152 1.61848 67.2703 1.89029C67.3628 1.92858 67.611 1.70989 67.8856 1.97059C68.5767 2.62553 69.1835 3.487 69.9337 4.17199C70.0951 4.31971 70.251 3.84333 70.4281 4.40528C70.4393 4.44343 70.3295 4.79214 70.3967 4.97593C70.4429 5.10327 70.781 5.3117 70.81 5.50371C70.8388 5.69561 70.5264 5.54879 70.5213 5.81197C70.5179 6.07674 70.8803 6.33537 70.6485 6.63025ZM54.1269 33.0675C54.5859 33.1728 53.7836 32.0912 53.7347 32.5407C53.7333 32.5637 54.1038 33.0628 54.1269 33.0675ZM25.9759 54.7029C26.6394 54.9491 26.3291 54.0919 25.8377 53.8861C25.3466 53.6807 25.7743 54.6286 25.9759 54.7029ZM23.0393 57.4268C23.6777 57.5355 22.5957 55.9617 22.4412 56.5573C22.4318 56.5914 23.002 57.4207 23.0393 57.4268ZM66.4509 2.93564C66.4662 2.9457 66.6495 2.79348 66.6413 2.77678C66.4361 2.38101 66.0698 2.68561 66.4509 2.93564ZM20.1487 60.1615C20.4151 60.2853 20.5612 59.8056 20.2301 59.6516C19.9638 59.5277 19.8171 60.0077 20.1487 60.1615ZM66.4759 24.1387C66.497 24.1453 66.6121 24.0111 66.5135 23.953C66.2072 23.7573 66.1595 24.0011 66.4759 24.1387ZM14.7668 64.1825C15.6072 63.6485 17.0295 64.5564 16.0555 65.0574C15.8791 65.1482 16.0948 64.4023 15.81 64.4366C15.2896 64.5003 15.6361 65.4757 14.9461 65.3271C14.8206 65.2994 14.7168 64.2101 14.7669 64.1797C14.7669 64.1806 14.7668 64.1815 14.7668 64.1825ZM55.2636 34.2295C55.2794 34.2397 55.4747 34.1064 55.468 34.0891C55.3024 33.6751 54.9094 33.943 55.2636 34.2295ZM58.4127 25.2481C58.3824 25.2198 57.875 25.4093 57.8715 25.4495C57.9019 26.2021 58.9304 25.8199 58.4127 25.2481ZM43.2836 44.7147C43.3378 45.213 43.1211 45.4405 42.6302 45.1351C42.8533 45.0021 43.0623 44.8492 43.2836 44.7147Z" fill="#1788C5"/>
</svg>
